<svg width="104" height="30" viewBox="0 0 104 30" fill="none" xmlns="http://www.w3.org/2000/svg">
<g clip-path="url(#clip0)">
<path fill-rule="evenodd" clip-rule="evenodd" d="M3.55348e-06 3.528C-0.000654718 3.06452 0.0901504 2.60545 0.267216 2.17712C0.444281 1.74878 0.704127 1.3596 1.03186 1.03186C1.3596 0.704127 1.74878 0.444281 2.17712 0.267216C2.60545 0.0901504 3.06452 -0.000654718 3.528 3.55348e-06H100.472C100.935 -0.000654718 101.395 0.0901504 101.823 0.267216C102.251 0.444281 102.64 0.704127 102.968 1.03186C103.296 1.3596 103.556 1.74878 103.733 2.17712C103.91 2.60545 104.001 3.06452 104 3.528V26.472C104.001 26.9355 103.91 27.3946 103.733 27.8229C103.556 28.2512 103.296 28.6404 102.968 28.9681C102.64 29.2959 102.251 29.5557 101.823 29.7328C101.395 29.9099 100.935 30.0007 100.472 30H3.528C3.06452 30.0007 2.60545 29.9099 2.17712 29.7328C1.74878 29.5557 1.3596 29.2959 1.03186 28.9681C0.704127 28.6404 0.444281 28.2512 0.267216 27.8229C0.0901504 27.3946 -0.000654718 26.9355 3.55348e-06 26.472V3.528Z" fill="black"/>
<path d="M36.007 7.23299V7.19699C36.607 7.09099 37.042 6.65699 37.042 5.98599C37.042 5.20999 36.431 4.56299 35.313 4.56299C34.138 4.56299 33.549 5.26899 33.526 5.98599H34.173C34.208 5.53899 34.631 5.15099 35.302 5.15099C35.902 5.15099 36.348 5.50399 36.348 6.04499C36.348 6.62099 35.913 6.97399 35.278 6.97399H34.596V7.56199H35.266C36.054 7.56199 36.525 7.89199 36.525 8.53799C36.525 9.16099 36.066 9.54899 35.302 9.54899C34.572 9.54899 34.09 9.17299 34.032 8.70299H33.397C33.444 9.51399 34.137 10.137 35.29 10.137C36.442 10.137 37.207 9.50199 37.207 8.53699C37.218 7.82099 36.713 7.30299 36.007 7.23299ZM52.53 9.25499H52.506L51.389 5.89199H50.648L52.165 10.055L52.105 10.278C51.988 10.713 51.765 10.866 51.295 10.866C51.189 10.866 51.059 10.855 51.001 10.855V11.407C51.118 11.431 51.259 11.443 51.377 11.443C52.071 11.443 52.47 11.173 52.787 10.302L52.894 10.02C52.894 10.02 54.317 6.03299 54.364 5.89199H53.646L52.53 9.25499ZM39.888 5.83299C38.9 5.83299 38.406 6.36299 38.359 7.07999H38.994C39.029 6.66799 39.335 6.39699 39.864 6.39699C40.417 6.39699 40.734 6.69099 40.734 7.23199V7.64399H39.653C38.712 7.64399 38.206 8.10299 38.206 8.81999C38.206 9.57299 38.759 10.067 39.546 10.067C40.146 10.067 40.523 9.81999 40.734 9.48999H40.758V9.99599H41.405V7.17399C41.405 6.30399 40.77 5.83299 39.888 5.83299ZM40.734 8.63199C40.734 9.14899 40.299 9.50199 39.735 9.50199C39.3 9.50199 38.9 9.27899 38.9 8.79699C38.9 8.41999 39.147 8.16199 39.7 8.16199H40.734V8.63199ZM42.84 9.99599H43.51V6.44499H45.403V5.89199H42.839V9.99599H42.84ZM48.355 5.83299C47.802 5.83299 47.379 6.10299 47.143 6.47999H47.12V5.89199H46.473V11.36H47.143V9.45499H47.167C47.402 9.81999 47.802 10.067 48.319 10.067C49.284 10.067 49.954 9.33699 49.954 8.13799V7.76199C49.966 6.53899 49.272 5.83299 48.354 5.83299H48.355ZM49.284 8.09099C49.284 8.99599 48.872 9.49099 48.261 9.49099C47.567 9.49099 47.143 8.93799 47.143 8.09099V7.78499C47.143 6.97399 47.567 6.42099 48.249 6.42099C48.907 6.42099 49.295 6.92699 49.295 7.79699V8.09099H49.284ZM69.58 7.29099H68.898V5.89099H68.228V9.99599H69.592C70.545 9.99599 71.156 9.46599 71.156 8.64399C71.144 7.80899 70.533 7.29099 69.58 7.29099ZM69.569 9.45499H68.899V7.83199H69.557C70.109 7.83199 70.462 8.14999 70.462 8.63199C70.474 9.12599 70.122 9.45499 69.568 9.45499H69.569ZM57.303 7.89099V7.85599C57.5064 7.82406 57.6913 7.71938 57.8234 7.56139C57.9555 7.4034 58.0257 7.20285 58.021 6.99699C58.021 6.30299 57.421 5.82099 56.539 5.82099C55.634 5.82099 55.069 6.36199 55.022 7.04399H55.681C55.716 6.71499 55.975 6.40899 56.539 6.40899C57.021 6.40899 57.35 6.63299 57.35 7.03299C57.35 7.40899 57.056 7.63299 56.563 7.63299H56.08V8.17299H56.563C57.127 8.17299 57.492 8.38499 57.492 8.81999C57.492 9.23199 57.139 9.47899 56.586 9.47899C55.963 9.47899 55.74 9.19599 55.657 8.89099H55C55.023 9.46699 55.517 10.067 56.599 10.067C57.539 10.067 58.175 9.56099 58.175 8.84399C58.163 8.30299 57.787 7.96199 57.305 7.89099H57.303ZM80.81 7.89099V7.85599C81.0134 7.82406 81.1983 7.71938 81.3304 7.56139C81.4625 7.4034 81.5327 7.20285 81.528 6.99699C81.528 6.30299 80.928 5.82099 80.046 5.82099C79.141 5.82099 78.576 6.36199 78.529 7.04399H79.188C79.223 6.71499 79.482 6.40899 80.046 6.40899C80.528 6.40899 80.858 6.63299 80.858 7.03299C80.858 7.40899 80.564 7.63299 80.07 7.63299H79.588V8.17299H80.07C80.634 8.17299 80.999 8.38499 80.999 8.81999C80.999 9.23199 80.646 9.47899 80.093 9.47899C79.47 9.47899 79.246 9.19599 79.164 8.89099H78.506C78.529 9.46699 79.023 10.067 80.105 10.067C81.045 10.067 81.681 9.56099 81.681 8.84399C81.657 8.30299 81.281 7.96199 80.811 7.89099H80.81ZM74.801 8.96099H74.778V5.89099H74.131V9.99599H74.743L76.8 6.93799H76.811V9.99599H77.47V5.89199H76.858L74.8 8.96199L74.801 8.96099ZM60.126 8.96099H60.102V5.89099H59.456V9.99599H60.067L62.125 6.93799H62.137V9.99599H62.795V5.89199H62.184L60.126 8.96199V8.96099ZM63.83 6.44499H65.182V9.99599H65.852V6.44499H67.193V5.89199H63.83V6.44499ZM36.501 20.65H32.797L31.892 23.132H30.257L33.891 13.877H35.431L39.147 23.132H37.43L36.501 20.651V20.65ZM33.267 19.392H36.031L35.043 16.746C34.8939 16.348 34.7605 15.9444 34.643 15.536C34.526 15.923 34.396 16.323 34.255 16.735L33.267 19.392ZM39.876 17.922C39.876 17.417 39.864 16.852 39.829 16.241H41.311C41.37 16.523 41.405 16.817 41.428 17.111C42.04 16.441 42.745 16.111 43.533 16.111C43.992 16.111 44.415 16.229 44.815 16.464C45.203 16.699 45.521 17.064 45.768 17.558C46.003 18.064 46.132 18.698 46.132 19.463C46.132 20.263 45.991 20.956 45.721 21.521C45.45 22.097 45.062 22.521 44.568 22.815C44.074 23.109 43.498 23.25 42.851 23.25C42.381 23.25 41.922 23.167 41.464 23.015V25.86L39.888 25.99V17.922H39.876ZM44.027 21.45C44.345 21.015 44.509 20.392 44.509 19.557C44.509 18.781 44.379 18.228 44.109 17.875C43.988 17.7093 43.8284 17.5756 43.644 17.4855C43.4596 17.3954 43.2561 17.3517 43.051 17.358C42.745 17.358 42.463 17.428 42.204 17.57C41.9313 17.726 41.6822 17.92 41.464 18.146V21.838C41.617 21.921 41.804 21.98 42.016 22.015C42.228 22.05 42.428 22.085 42.639 22.085C43.239 22.097 43.709 21.885 44.027 21.45ZM47.132 17.922C47.132 17.417 47.12 16.852 47.085 16.241H48.566C48.625 16.523 48.66 16.817 48.684 17.111C49.295 16.441 50.001 16.111 50.789 16.111C51.247 16.111 51.671 16.229 52.071 16.464C52.459 16.699 52.776 17.064 53.023 17.558C53.258 18.064 53.388 18.698 53.388 19.463C53.388 20.263 53.246 20.956 52.976 21.521C52.706 22.097 52.318 22.521 51.824 22.815C51.33 23.109 50.754 23.25 50.107 23.25C49.637 23.25 49.177 23.167 48.719 23.015V25.86L47.143 25.99V17.922H47.132ZM51.282 21.45C51.6 21.015 51.765 20.392 51.765 19.557C51.765 18.781 51.635 18.228 51.365 17.875C51.244 17.7093 51.0844 17.5756 50.9 17.4855C50.7156 17.3954 50.5121 17.3517 50.307 17.358C50.001 17.358 49.719 17.428 49.46 17.57C49.1874 17.7261 48.9382 17.92 48.72 18.146V21.838C48.872 21.921 49.06 21.98 49.272 22.015C49.484 22.062 49.683 22.085 49.895 22.085C50.495 22.097 50.953 21.885 51.283 21.45H51.282ZM56.351 22.697C55.6737 22.3277 55.1242 21.7619 54.775 21.074C54.411 20.368 54.222 19.545 54.222 18.581C54.222 17.546 54.434 16.664 54.858 15.935C55.281 15.205 55.858 14.665 56.574 14.3C57.304 13.936 58.114 13.76 59.02 13.76C59.55 13.76 60.055 13.818 60.55 13.936C61.0155 14.0505 61.4682 14.212 61.901 14.418L61.501 15.629C60.667 15.229 59.867 15.029 59.103 15.029C58.456 15.029 57.891 15.171 57.409 15.441C56.927 15.711 56.551 16.123 56.28 16.652C56.01 17.182 55.88 17.828 55.88 18.581C55.88 19.24 55.986 19.828 56.186 20.333C56.386 20.839 56.716 21.251 57.162 21.545C57.609 21.838 58.174 21.991 58.844 21.991C59.15 21.991 59.455 21.968 59.761 21.909C60.067 21.862 60.361 21.779 60.62 21.686V19.816H58.48V18.593H62.148V22.485C61.6139 22.7344 61.0538 22.9239 60.478 23.05C59.902 23.18 59.314 23.25 58.738 23.25C57.833 23.261 57.033 23.073 56.351 22.697ZM67.852 23.132C67.7895 22.8301 67.754 22.5232 67.746 22.215C67.4809 22.5228 67.1569 22.7744 66.793 22.955C66.3849 23.1611 65.9332 23.2664 65.476 23.262C65.076 23.262 64.724 23.179 64.394 23.026C64.0687 22.8768 63.7976 22.6305 63.618 22.321C63.43 22.003 63.336 21.627 63.336 21.168C63.336 20.498 63.571 19.968 64.053 19.568C64.536 19.169 65.335 18.969 66.464 18.969C66.887 18.969 67.299 19.004 67.711 19.063V18.933C67.711 18.323 67.581 17.899 67.323 17.652C67.063 17.405 66.688 17.276 66.205 17.276C65.8395 17.2778 65.4759 17.3289 65.124 17.428C64.7751 17.5095 64.4359 17.6278 64.112 17.781L63.865 16.629C64.147 16.499 64.512 16.382 64.982 16.276C65.441 16.17 65.923 16.111 66.441 16.111C67.041 16.111 67.546 16.205 67.957 16.381C68.369 16.558 68.698 16.876 68.934 17.311C69.169 17.746 69.286 18.346 69.286 19.087V21.827C69.286 22.109 69.298 22.544 69.333 23.12H67.852V23.132ZM66.899 21.85C67.229 21.697 67.499 21.497 67.699 21.262V19.992C67.264 19.945 66.923 19.922 66.641 19.922C65.994 19.922 65.535 20.027 65.288 20.239C65.041 20.451 64.912 20.733 64.912 21.098C64.912 21.438 65.006 21.686 65.182 21.85C65.359 22.015 65.606 22.097 65.923 22.097C66.253 22.085 66.57 22.015 66.899 21.85ZM70.662 21.474V13.324L72.238 13.194V21.192C72.238 21.486 72.285 21.697 72.391 21.815C72.485 21.933 72.649 21.991 72.861 21.991C72.955 21.991 73.096 21.968 73.273 21.921L73.461 23.05C73.308 23.109 73.131 23.156 72.92 23.19C72.7179 23.2264 72.5133 23.2464 72.308 23.25C71.203 23.262 70.662 22.662 70.662 21.474ZM74.59 21.474V13.324L76.165 13.194V21.192C76.165 21.486 76.213 21.697 76.318 21.815C76.412 21.933 76.578 21.991 76.788 21.991C76.883 21.991 77.024 21.968 77.2 21.921L77.388 23.05C77.236 23.109 77.059 23.156 76.848 23.19C76.6459 23.2264 76.4413 23.2464 76.236 23.25C75.131 23.262 74.59 22.662 74.59 21.474ZM83.927 19.886H79.41C79.48 21.333 80.174 22.05 81.468 22.05C81.798 22.05 82.127 22.015 82.468 21.933C82.808 21.85 83.126 21.744 83.444 21.615L83.784 22.697C83.009 23.073 82.15 23.262 81.186 23.262C80.456 23.262 79.834 23.12 79.328 22.85C78.831 22.5833 78.4344 22.1621 78.198 21.65C77.94 21.133 77.823 20.51 77.823 19.769C77.823 19.004 77.952 18.346 78.223 17.805C78.493 17.252 78.869 16.84 79.34 16.547C79.822 16.252 80.374 16.111 80.998 16.111C81.644 16.111 82.198 16.264 82.632 16.57C83.067 16.876 83.397 17.276 83.608 17.781C83.82 18.287 83.926 18.851 83.926 19.463V19.886H83.927ZM82.387 18.886C82.351 18.334 82.222 17.922 81.975 17.652C81.728 17.382 81.399 17.24 80.987 17.24C80.587 17.24 80.257 17.381 79.987 17.652C79.717 17.934 79.552 18.334 79.47 18.887H82.386L82.387 18.886ZM85.197 17.97C85.197 17.593 85.185 17.017 85.15 16.24H86.62C86.643 16.429 86.667 16.664 86.69 16.923C86.714 17.193 86.725 17.405 86.737 17.57C86.925 17.264 87.102 17.017 87.278 16.805C87.455 16.593 87.666 16.429 87.901 16.299C88.137 16.17 88.407 16.099 88.713 16.099C88.96 16.099 89.16 16.123 89.336 16.182L89.136 17.546C88.972 17.4982 88.8018 17.4746 88.631 17.476C88.2842 17.4681 87.9433 17.5665 87.654 17.758C87.372 17.946 87.078 18.264 86.772 18.698V23.12H85.197V17.97ZM90.289 25.955C90.0957 25.9306 89.9061 25.8833 89.724 25.814L90.006 24.661C90.112 24.696 90.242 24.72 90.406 24.743C90.571 24.767 90.724 24.79 90.865 24.79C91.559 24.79 92.088 24.343 92.441 23.438L92.546 23.179L90.006 16.229H91.7L92.981 20.109C93.193 20.78 93.323 21.286 93.381 21.639C93.499 21.145 93.64 20.639 93.805 20.145L95.098 16.229H96.686L94.146 23.215C93.91 23.873 93.652 24.402 93.37 24.814C93.087 25.226 92.77 25.52 92.393 25.719C92.017 25.919 91.559 26.013 91.029 26.013C90.759 26.013 90.512 25.99 90.289 25.955Z" fill="white"/>
<path fill-rule="evenodd" clip-rule="evenodd" d="M20.614 5.104H11.936C7.856 5.104 6.35 6.598 6.35 10.69V19.369C6.35 23.449 7.844 24.955 11.936 24.955H20.602C24.682 24.955 26.188 23.462 26.188 19.369V10.69C26.2 6.598 24.706 5.104 20.614 5.104Z" fill="white"/>
<path d="M10.29 15.03H10.819V17.629H10.289V16.57H9.102V17.629H8.572V15.029H9.102V16.076H10.289V15.03H10.29ZM13.253 16.511C13.253 16.935 13.041 17.158 12.665 17.158C12.277 17.158 12.077 16.923 12.077 16.488V15.018H11.547V16.5C11.547 17.229 11.947 17.652 12.665 17.652C13.382 17.652 13.782 17.229 13.782 16.488V15.03H13.252V16.511H13.253ZM19.333 16.805L18.744 15.018H18.309L17.721 16.805L17.145 15.018H16.581L17.486 17.605H17.921L18.509 15.9L19.097 17.605H19.532L20.438 15.018H19.897L19.332 16.805H19.333ZM21.403 16.5H22.355V16.03H21.402V15.5H22.79V15.03H20.885V17.617H22.848V17.147H21.402V16.5H21.403ZM23.472 17.617H23.989V15.03H23.472V17.617ZM14.817 17.076L14.582 17.616H14.041L15.181 15.03H15.64L16.78 17.617H16.228L15.993 17.076H14.817ZM15.017 16.606H15.817L15.417 15.676L15.017 16.606ZM16.287 11.725C15.4106 11.7245 14.5703 11.3761 13.9506 10.7564C13.3309 10.1368 12.9825 9.29642 12.982 8.42004H13.452C13.4523 9.17185 13.751 9.89279 14.2826 10.4244C14.8143 10.956 15.5352 11.2548 16.287 11.255C17.0385 11.2542 17.7589 10.9552 18.2901 10.4237C18.8212 9.89214 19.1197 9.17151 19.12 8.42004H19.59C19.578 10.243 18.097 11.725 16.286 11.725H16.287Z" fill="black"/>
</g>
<defs>
<clipPath id="clip0">
<rect width="104" height="30" fill="white"/>
</clipPath>
</defs>
</svg>
