<svg width="104" height="30" viewBox="0 0 104 30" fill="none" xmlns="http://www.w3.org/2000/svg">
<path d="M100.471 0H3.529C1.57999 0 0 1.57999 0 3.529V26.471C0 28.42 1.57999 30 3.529 30H100.471C102.42 30 104 28.42 104 26.471V3.529C104 1.57999 102.42 0 100.471 0Z" fill="black"/>
<path fill-rule="evenodd" clip-rule="evenodd" d="M34.598 7.54299V6.95699H35.278C35.918 6.95699 36.352 6.60899 36.352 6.03099C36.352 5.49599 35.91 5.14099 35.309 5.14099C34.633 5.14099 34.215 5.52299 34.176 5.97299H33.523C33.547 5.26199 34.137 4.55499 35.313 4.55499C36.422 4.55499 37.039 5.19499 37.039 5.97299C37.039 6.64799 36.609 7.08599 36.008 7.18799V7.22699C36.711 7.30499 37.223 7.81699 37.223 8.51599C37.223 9.47999 36.457 10.117 35.301 10.117C34.152 10.117 33.449 9.48799 33.406 8.67999H34.046C34.098 9.15199 34.582 9.52699 35.313 9.52699C36.07 9.52699 36.531 9.14799 36.531 8.51999C36.531 7.87099 36.059 7.54299 35.27 7.54299H34.598ZM40.739 9.48799C40.532 9.81999 40.157 10.066 39.552 10.066C38.759 10.066 38.212 9.57399 38.212 8.81999C38.212 8.10199 38.712 7.64799 39.653 7.64499H40.735V7.22699C40.735 6.68699 40.423 6.39099 39.868 6.39099C39.341 6.39099 39.04 6.66099 39.001 7.07099H38.368C38.411 6.35099 38.899 5.82799 39.891 5.82799C40.766 5.82799 41.403 6.30499 41.403 7.16799V9.99999H40.759V9.48799H40.739ZM39.731 9.50799C40.305 9.50799 40.735 9.14799 40.735 8.63699V8.15999H39.704C39.141 8.15999 38.899 8.42599 38.899 8.79699C38.899 9.28099 39.302 9.50699 39.731 9.50699V9.50799ZM45.408 6.44499H43.513V9.99999H42.841V5.89499H45.408V6.44499ZM48.323 10.066C47.799 10.066 47.397 9.81599 47.166 9.45299H47.146V11.363H46.475V5.89499H47.12V6.48499H47.14C47.377 6.09799 47.8 5.83199 48.35 5.83199C49.276 5.83199 49.96 6.54299 49.96 7.75799V8.13699C49.96 9.33599 49.288 10.067 48.323 10.067V10.066ZM48.256 9.47999C48.87 9.47999 49.284 8.98799 49.284 8.08599V7.77999C49.284 6.91699 48.901 6.40999 48.237 6.40999C47.553 6.40999 47.135 6.95999 47.135 7.77599V8.08499C47.135 8.92499 47.557 9.47899 48.256 9.47899V9.47999ZM54.355 5.89499C54.315 6.02699 52.894 10.015 52.89 10.02L52.784 10.305C52.464 11.175 52.062 11.441 51.37 11.441C51.2428 11.4415 51.1159 11.4298 50.991 11.406V10.859C51.058 10.867 51.187 10.875 51.288 10.875C51.757 10.875 51.98 10.715 52.097 10.281L52.159 10.059L50.648 5.89499H51.394L52.504 9.25399H52.527L53.64 5.89399H54.355V5.89499ZM56.582 9.47999C57.145 9.47999 57.492 9.23399 57.492 8.81999C57.492 8.38999 57.129 8.17599 56.562 8.17599H56.082V7.63999H56.562C57.062 7.63999 57.355 7.40499 57.355 7.03399C57.355 6.63599 57.023 6.41399 56.543 6.41399C55.977 6.41399 55.727 6.71799 55.688 7.04999H55.028C55.07 6.36199 55.628 5.82699 56.539 5.82699C57.422 5.82699 58.023 6.29999 58.023 6.99899C58.023 7.42899 57.743 7.77599 57.309 7.85399V7.88599C57.781 7.95999 58.16 8.30399 58.16 8.84599C58.16 9.56599 57.527 10.066 56.59 10.066C55.512 10.066 55.02 9.46799 54.996 8.89399H55.656C55.73 9.19799 55.961 9.47899 56.582 9.47899V9.47999ZM62.142 9.99999V6.94099H62.122L60.067 9.99999H59.45V5.89499H60.106V8.95699H60.126L62.18 5.89499H62.798V9.99999H62.141H62.142ZM67.197 6.44499H65.849V9.99999H65.177V6.44499H63.826V5.89499H67.196V6.44499H67.197ZM69.561 7.83499H68.897V9.45299H69.565C70.115 9.45299 70.471 9.12499 70.471 8.64099C70.471 8.14799 70.116 7.83599 69.561 7.83599V7.83499ZM68.225 9.99999V5.89499H68.897V7.28899H69.584C70.537 7.28899 71.143 7.81299 71.143 8.64499C71.143 9.47299 70.537 9.99999 69.584 9.99999H68.225ZM76.816 9.99999V6.94099H76.796L74.743 9.99999H74.126V5.89499H74.782V8.95699H74.802L76.856 5.89499H77.474V9.99999H76.817H76.816ZM80.078 9.47999C80.641 9.47999 80.988 9.23399 80.988 8.81999C80.988 8.38999 80.625 8.17599 80.058 8.17599H79.578V7.63999H80.058C80.558 7.63999 80.852 7.40499 80.852 7.03399C80.852 6.63599 80.52 6.41399 80.039 6.41399C79.473 6.41399 79.223 6.71799 79.184 7.04999H78.524C78.566 6.36199 79.125 5.82699 80.035 5.82699C80.918 5.82699 81.52 6.29999 81.52 6.99899C81.52 7.42899 81.238 7.77599 80.805 7.85399V7.88599C81.277 7.95999 81.656 8.30399 81.656 8.84599C81.656 9.56599 81.023 10.066 80.086 10.066C79.008 10.066 78.516 9.46799 78.492 8.89399H79.152C79.227 9.19799 79.457 9.47899 80.078 9.47899V9.47999ZM37.286 23.037L36.412 20.4H32.77L31.896 23.037H30.353L33.803 13.28H35.405L38.855 23.037H37.286ZM34.571 14.903L33.147 19.183H36.035L34.611 14.903H34.571ZM43.471 15.619C45.305 15.619 46.511 17.087 46.511 19.365C46.511 21.637 45.311 23.111 43.504 23.111C42.471 23.111 41.657 22.644 41.226 21.833H41.2V25.471H39.763V15.694H41.147V16.911H41.18C41.584 16.12 42.471 15.619 43.47 15.619H43.471ZM43.107 21.867C44.272 21.867 45.04 20.887 45.04 19.365C45.04 17.851 44.272 16.863 43.107 16.863C41.967 16.863 41.193 17.871 41.187 19.365C41.193 20.866 41.961 21.867 43.107 21.867ZM51.364 15.619C53.199 15.619 54.404 17.087 54.404 19.365C54.404 21.637 53.205 23.111 51.397 23.111C50.364 23.111 49.55 22.644 49.119 21.833H49.093V25.471H47.656V15.694H49.04V16.911H49.073C49.477 16.12 50.364 15.619 51.364 15.619ZM51 21.867C52.166 21.867 52.934 20.887 52.934 19.365C52.934 17.851 52.166 16.863 51 16.863C49.861 16.863 49.086 17.871 49.08 19.365C49.086 20.866 49.854 21.867 51 21.867ZM58.397 20.318C58.489 22.083 59.92 23.198 62.039 23.198C64.303 23.198 65.727 22.056 65.727 20.231C65.727 18.804 64.913 17.999 62.953 17.526L61.9 17.262C60.668 16.952 60.165 16.546 60.165 15.856C60.165 14.991 60.953 14.396 62.105 14.396C63.257 14.396 64.045 14.984 64.131 15.957H65.575C65.529 14.274 64.145 13.117 62.125 13.117C60.085 13.117 58.648 14.274 58.648 15.957C58.648 17.317 59.463 18.155 61.218 18.587L62.456 18.892C63.694 19.202 64.217 19.656 64.217 20.413C64.217 21.285 63.35 21.921 62.145 21.921C60.887 21.921 59.966 21.285 59.86 20.318H58.397ZM67.343 14.044V15.694H66.35V16.85H67.343V21.103C67.343 22.523 67.899 23.083 69.336 23.083C69.647 23.083 69.986 23.05 70.144 23.009V21.853C69.9814 21.8732 69.8178 21.8845 69.654 21.887C69.051 21.887 68.774 21.59 68.774 20.954V16.85H70.151V15.694H68.773V14.044H67.343ZM74.442 23.124C72.362 23.124 71.038 21.677 71.038 19.365C71.038 17.059 72.369 15.599 74.442 15.599C76.514 15.599 77.839 17.053 77.839 19.365C77.839 21.677 76.521 23.125 74.442 23.125V23.124ZM74.442 21.907C75.66 21.907 76.382 20.967 76.382 19.365C76.382 17.763 75.66 16.816 74.442 16.816C73.223 16.816 72.495 17.769 72.495 19.366C72.495 20.968 73.223 21.907 74.442 21.907ZM78.991 23.037H80.428V18.655C80.428 17.621 81.024 16.951 81.971 16.951C82.255 16.951 82.507 16.991 82.626 17.039V15.667C82.4606 15.6326 82.2919 15.6166 82.123 15.619C81.275 15.619 80.613 16.113 80.388 16.931H80.362V15.694H78.99V23.037H78.991ZM86.54 16.796C85.507 16.796 84.759 17.566 84.68 18.696H88.328C88.295 17.553 87.586 16.796 86.54 16.796ZM88.321 20.886H89.691C89.487 22.205 88.221 23.124 86.606 23.124C84.52 23.124 83.222 21.691 83.222 19.392C83.222 17.093 84.533 15.599 86.546 15.599C88.52 15.599 89.765 16.999 89.765 19.223V19.737H84.672V19.825C84.672 21.096 85.454 21.935 86.632 21.935C87.467 21.935 88.122 21.529 88.322 20.886H88.321Z" fill="white"/>
<path d="M23.179 21.002C22.365 22.185 21.523 23.362 20.194 23.386C18.886 23.411 18.467 22.616 16.974 22.616C15.48 22.616 15.013 23.361 13.778 23.411C12.495 23.458 11.519 22.132 10.699 20.954C9.023 18.546 7.744 14.144 9.464 11.174C10.316 9.698 11.843 8.764 13.497 8.74C14.757 8.717 15.947 9.585 16.717 9.585C17.487 9.585 18.932 8.543 20.451 8.695C21.087 8.722 22.871 8.95 24.017 10.618C23.927 10.678 21.887 11.857 21.912 14.315C21.937 17.251 24.5 18.227 24.529 18.24C24.506 18.31 24.119 19.634 23.179 21.002ZM17.599 5.47C18.302 4.65 19.491 4.041 20.471 4C20.597 5.139 20.136 6.279 19.456 7.1C18.774 7.92 17.658 8.56 16.563 8.474C16.414 7.36 16.966 6.198 17.599 5.47Z" fill="white"/>
</svg>
