<svg width="104" height="30" viewBox="0 0 104 30" fill="none" xmlns="http://www.w3.org/2000/svg">
<path d="M100.315 0H3.529C1.57999 0 0 1.57999 0 3.529V26.471C0 28.42 1.57999 30 3.529 30H100.315C102.264 30 103.844 28.42 103.844 26.471V3.529C103.844 1.57999 102.264 0 100.315 0Z" fill="black"/>
<path fill-rule="evenodd" clip-rule="evenodd" d="M74.785 19.63C74.785 20.52 74.583 21.23 74.18 21.76C73.777 22.288 73.223 22.553 72.516 22.553C72.102 22.553 71.739 22.474 71.426 22.317C71.1169 22.1634 70.8527 21.9326 70.659 21.647V24.723H70V16.493H70.505L70.626 17.423C70.824 17.093 71.08 16.837 71.396 16.656C71.71 16.475 72.08 16.384 72.505 16.384C73.219 16.384 73.777 16.669 74.18 17.238C74.583 17.808 74.785 18.567 74.785 19.515V19.63ZM74.125 19.515C74.125 18.761 73.975 18.145 73.675 17.669C73.375 17.193 72.935 16.955 72.357 16.955C71.921 16.955 71.565 17.06 71.288 17.268C71.0101 17.4785 70.793 17.7591 70.659 18.081V20.96C70.813 21.282 71.031 21.536 71.313 21.72C71.595 21.906 71.946 21.998 72.368 21.998C72.943 21.998 73.379 21.782 73.678 21.35C73.976 20.918 74.125 20.345 74.125 19.63V19.515ZM76.998 22.437H76.345V13.868H76.998V22.438V22.437ZM82.579 22.437C82.544 22.2585 82.514 22.0791 82.489 21.899C82.469 21.749 82.459 21.595 82.459 21.438C82.2417 21.7715 81.9452 22.046 81.596 22.237C81.2065 22.4526 80.7671 22.5616 80.322 22.553C79.739 22.553 79.288 22.398 78.968 22.089C78.648 21.779 78.487 21.359 78.487 20.828C78.487 20.297 78.719 19.867 79.185 19.538C79.65 19.208 80.254 19.043 80.997 19.043H82.458V18.307C82.458 17.882 82.324 17.549 82.055 17.307C81.785 17.065 81.405 16.944 80.915 16.944C80.465 16.944 80.101 17.054 79.825 17.274C79.548 17.494 79.41 17.77 79.41 18.104H78.8L78.79 18.07C78.767 17.624 78.958 17.23 79.363 16.892C79.768 16.553 80.296 16.384 80.948 16.384C81.6 16.384 82.123 16.551 82.518 16.884C82.914 17.217 83.112 17.695 83.112 18.318V21.24C83.112 21.449 83.124 21.652 83.148 21.85C83.172 22.047 83.211 22.243 83.266 22.437H82.579ZM80.393 21.971C80.898 21.971 81.336 21.851 81.706 21.611C82.076 21.371 82.326 21.062 82.458 20.685V19.548H80.992C80.457 19.548 80.016 19.675 79.668 19.93C79.32 20.184 79.146 20.491 79.146 20.85C79.146 21.187 79.256 21.458 79.478 21.663C79.7 21.868 80.005 21.971 80.393 21.971ZM86.551 20.828L86.76 21.537H86.793L88.589 16.494H89.325L86.743 23.388C86.6054 23.7629 86.4026 24.1106 86.144 24.415C85.899 24.697 85.54 24.838 85.068 24.838C84.991 24.838 84.898 24.83 84.788 24.813C84.706 24.8028 84.625 24.7854 84.546 24.761L84.623 24.211C84.667 24.219 84.737 24.227 84.834 24.237C84.931 24.246 85.002 24.25 85.046 24.25C85.176 24.2547 85.3054 24.2297 85.4243 24.1768C85.5431 24.124 85.6484 24.0447 85.732 23.945C85.905 23.742 86.051 23.481 86.172 23.163L86.485 22.361L84.189 16.494H84.919L86.551 20.828ZM65.984 19.045L62.276 20.604C62.276 20.604 62.516 21.466 63.63 21.472C64.503 21.477 64.996 20.685 64.996 20.685L65.936 21.333C65.936 21.333 65.178 22.583 63.623 22.583C61.713 22.583 60.871 20.883 60.871 19.779C60.871 18.715 61.539 16.914 63.504 16.914C65.47 16.914 65.984 19.044 65.984 19.044V19.045ZM64.573 18.603C64.573 18.603 64.106 17.881 63.391 18.013C61.878 18.296 62.068 19.643 62.068 19.643L64.573 18.603ZM59.105 14.096H60.345V22.429H59.105V14.096ZM57.146 17.093L58.292 17.103V22.361C58.292 23.704 57.506 25.123 55.656 25.123C53.805 25.123 53.207 23.454 53.207 23.454L54.26 23.004C54.26 23.004 54.582 24.032 55.71 24.032C56.996 24.032 57.146 22.842 57.146 22.435V21.864C57.146 21.864 56.701 22.572 55.596 22.572C54.399 22.572 52.976 21.528 52.976 19.748C52.976 17.968 54.316 16.95 55.61 16.913C56.647 16.883 57.146 17.613 57.146 17.613V17.093ZM55.694 21.503C56.53 21.503 57.208 20.724 57.208 19.763C57.208 18.802 56.53 18.023 55.694 18.023C54.858 18.023 54.18 18.802 54.18 19.763C54.18 20.724 54.858 21.503 55.694 21.503ZM49.675 22.578C48.134 22.578 46.885 21.309 46.885 19.744C46.885 18.18 48.134 16.911 49.675 16.911C51.216 16.911 52.465 18.18 52.465 19.744C52.465 21.309 51.216 22.578 49.675 22.578ZM49.657 21.467C50.523 21.467 51.225 20.696 51.225 19.744C51.225 18.794 50.523 18.022 49.657 18.022C48.79 18.022 48.088 18.793 48.088 19.744C48.088 20.696 48.79 21.467 49.657 21.467ZM43.62 22.578C42.078 22.578 40.828 21.309 40.828 19.744C40.828 18.18 42.078 16.911 43.619 16.911C45.16 16.911 46.409 18.18 46.409 19.744C46.409 21.309 45.16 22.578 43.619 22.578H43.62ZM43.6 21.467C44.467 21.467 45.17 20.696 45.17 19.744C45.17 18.794 44.467 18.022 43.6 18.022C42.735 18.022 42.032 18.793 42.032 19.744C42.032 20.696 42.735 21.467 43.601 21.467H43.6ZM39.294 17.8H40.37V17.844C40.775 20.862 38.75 22.6 36.323 22.578C33.935 22.574 32 20.613 32 18.188C32 15.765 33.935 13.8 36.323 13.8C37.571 13.8 38.62 14.243 39.337 15.011L38.494 15.867C37.968 15.321 37.221 15.022 36.359 15.022C34.637 15.022 33.24 16.44 33.24 18.189C33.24 19.938 34.637 21.356 36.36 21.356C37.854 21.356 38.973 20.594 39.24 18.986H36.378V17.8H39.294Z" fill="white"/>
<path d="M7.5 23.092V6.91C7.5 6.345 7.827 5.857 8.302 5.625L17.664 14.998L8.299 24.375C8.05913 24.2573 7.85708 24.0747 7.71584 23.8479C7.57459 23.6211 7.49981 23.3592 7.5 23.092ZM20.633 17.972L10.398 23.889L18.47 15.806L20.633 17.972ZM23.815 13.866C23.9884 13.9981 24.1292 14.1682 24.2265 14.3632C24.3239 14.5581 24.3753 14.7729 24.3768 14.9908C24.3782 15.2088 24.3297 15.4242 24.2349 15.6204C24.1401 15.8167 24.0016 15.9886 23.83 16.123L21.656 17.38L19.276 14.998L21.655 12.618L23.815 13.866ZM10.404 6.113L20.632 12.026L18.47 14.19L10.404 6.113Z" fill="white"/>
<path fill-rule="evenodd" clip-rule="evenodd" d="M33.598 7.54299V6.95699H34.278C34.918 6.95699 35.352 6.60899 35.352 6.03099C35.352 5.49599 34.91 5.14099 34.309 5.14099C33.633 5.14099 33.215 5.52299 33.176 5.97299H32.523C32.547 5.26199 33.137 4.55499 34.313 4.55499C35.422 4.55499 36.039 5.19499 36.039 5.97299C36.039 6.64799 35.609 7.08599 35.008 7.18799V7.22699C35.711 7.30499 36.223 7.81699 36.223 8.51599C36.223 9.47999 35.457 10.117 34.301 10.117C33.152 10.117 32.449 9.48799 32.406 8.67999H33.046C33.098 9.15199 33.582 9.52699 34.313 9.52699C35.07 9.52699 35.531 9.14799 35.531 8.51999C35.531 7.87099 35.059 7.54299 34.27 7.54299H33.598ZM39.739 9.48799C39.532 9.81999 39.157 10.066 38.552 10.066C37.759 10.066 37.212 9.57399 37.212 8.81999C37.212 8.10199 37.712 7.64799 38.653 7.64499H39.735V7.22699C39.735 6.68699 39.423 6.39099 38.868 6.39099C38.341 6.39099 38.04 6.66099 38.001 7.07099H37.368C37.411 6.35099 37.899 5.82799 38.891 5.82799C39.766 5.82799 40.403 6.30499 40.403 7.16799V9.99999H39.759V9.48799H39.739ZM38.731 9.50799C39.305 9.50799 39.735 9.14799 39.735 8.63699V8.15999H38.704C38.141 8.15999 37.899 8.42599 37.899 8.79699C37.899 9.28099 38.302 9.50699 38.731 9.50699V9.50799ZM44.408 6.44499H42.513V9.99999H41.841V5.89499H44.408V6.44499ZM47.323 10.066C46.799 10.066 46.397 9.81599 46.166 9.45299H46.146V11.363H45.475V5.89499H46.12V6.48499H46.14C46.377 6.09799 46.8 5.83199 47.35 5.83199C48.276 5.83199 48.96 6.54299 48.96 7.75799V8.13699C48.96 9.33599 48.288 10.067 47.323 10.067V10.066ZM47.256 9.47999C47.87 9.47999 48.284 8.98799 48.284 8.08599V7.77999C48.284 6.91699 47.901 6.40999 47.237 6.40999C46.553 6.40999 46.135 6.95999 46.135 7.77599V8.08499C46.135 8.92499 46.557 9.47899 47.256 9.47899V9.47999ZM53.355 5.89499C53.315 6.02699 51.894 10.015 51.89 10.02L51.784 10.305C51.464 11.175 51.062 11.441 50.37 11.441C50.2428 11.4415 50.1159 11.4298 49.991 11.406V10.859C50.058 10.867 50.187 10.875 50.288 10.875C50.757 10.875 50.98 10.715 51.097 10.281L51.159 10.059L49.648 5.89499H50.394L51.504 9.25399H51.527L52.64 5.89399H53.355V5.89499ZM55.582 9.47999C56.145 9.47999 56.492 9.23399 56.492 8.81999C56.492 8.38999 56.129 8.17599 55.562 8.17599H55.082V7.63999H55.562C56.062 7.63999 56.355 7.40499 56.355 7.03399C56.355 6.63599 56.023 6.41399 55.543 6.41399C54.977 6.41399 54.727 6.71799 54.688 7.04999H54.028C54.07 6.36199 54.628 5.82699 55.539 5.82699C56.422 5.82699 57.023 6.29999 57.023 6.99899C57.023 7.42899 56.743 7.77599 56.309 7.85399V7.88599C56.781 7.95999 57.16 8.30399 57.16 8.84599C57.16 9.56599 56.527 10.066 55.59 10.066C54.512 10.066 54.02 9.46799 53.996 8.89399H54.656C54.73 9.19799 54.961 9.47899 55.582 9.47899V9.47999ZM61.142 9.99999V6.94099H61.122L59.067 9.99999H58.45V5.89499H59.106V8.95699H59.126L61.18 5.89499H61.798V9.99999H61.141H61.142ZM66.197 6.44499H64.849V9.99999H64.177V6.44499H62.826V5.89499H66.196V6.44499H66.197ZM68.561 7.83499H67.897V9.45299H68.565C69.115 9.45299 69.471 9.12499 69.471 8.64099C69.471 8.14799 69.116 7.83599 68.561 7.83599V7.83499ZM67.225 9.99999V5.89499H67.897V7.28899H68.584C69.537 7.28899 70.143 7.81299 70.143 8.64499C70.143 9.47299 69.537 9.99999 68.584 9.99999H67.225ZM75.816 9.99999V6.94099H75.796L73.743 9.99999H73.126V5.89499H73.782V8.95699H73.802L75.856 5.89499H76.474V9.99999H75.817H75.816ZM79.078 9.47999C79.641 9.47999 79.988 9.23399 79.988 8.81999C79.988 8.38999 79.625 8.17599 79.058 8.17599H78.578V7.63999H79.058C79.558 7.63999 79.852 7.40499 79.852 7.03399C79.852 6.63599 79.52 6.41399 79.039 6.41399C78.473 6.41399 78.223 6.71799 78.184 7.04999H77.524C77.566 6.36199 78.125 5.82699 79.035 5.82699C79.918 5.82699 80.52 6.29999 80.52 6.99899C80.52 7.42899 80.238 7.77599 79.805 7.85399V7.88599C80.277 7.95999 80.656 8.30399 80.656 8.84599C80.656 9.56599 80.023 10.066 79.086 10.066C78.008 10.066 77.516 9.46799 77.492 8.89399H78.152C78.227 9.19799 78.457 9.47899 79.078 9.47899V9.47999Z" fill="white"/>
</svg>
