<svg width="35" height="35" viewBox="0 0 35 35" fill="none" xmlns="http://www.w3.org/2000/svg">
<path d="M17.5 35C27.165 35 35 27.165 35 17.5C35 7.83501 27.165 0 17.5 0C7.83501 0 0 7.83501 0 17.5C0 27.165 7.83501 35 17.5 35Z" fill="#D52D88"/>
<path d="M17.5 35C27.165 35 35 27.165 35 17.5C35 7.83501 27.165 0 17.5 0C7.83501 0 0 7.83501 0 17.5C0 27.165 7.83501 35 17.5 35Z" fill="#E6366D"/>
<path d="M13.657 10.5C12.8197 10.5 12.0167 10.8326 11.4247 11.4247C10.8326 12.0167 10.5 12.8197 10.5 13.657V21.343C10.5 22.1803 10.8326 22.9833 11.4247 23.5753C11.7178 23.8685 12.0658 24.101 12.4489 24.2597C12.8319 24.4184 13.2424 24.5 13.657 24.5H21.343C22.1803 24.5 22.9833 24.1674 23.5753 23.5753C24.1674 22.9833 24.5 22.1803 24.5 21.343V13.657C24.5 12.8197 24.1674 12.0167 23.5753 11.4247C22.9833 10.8326 22.1803 10.5 21.343 10.5H13.657ZM13.657 8.75H21.343C21.9874 8.75 22.6255 8.87696 23.2208 9.12354C23.8162 9.37011 24.3571 9.73157 24.8128 10.1872C25.2684 10.6429 25.6299 11.1838 25.8765 11.7792C26.123 12.3745 26.25 13.0126 26.25 13.657V21.343C26.25 21.9874 26.123 22.6255 25.8765 23.2208C25.6299 23.8162 25.2684 24.3571 24.8128 24.8128C24.3571 25.2684 23.8162 25.6299 23.2208 25.8765C22.6255 26.123 21.9874 26.25 21.343 26.25H13.657C12.3556 26.25 11.1074 25.733 10.1872 24.8128C9.26695 23.8926 8.75 22.6444 8.75 21.343V13.657C8.75 12.3556 9.26695 11.1074 10.1872 10.1872C11.1074 9.26695 12.3556 8.75 13.657 8.75Z" fill="white"/>
<path d="M17.5 22.1375C16.27 22.1375 15.0904 21.6489 14.2208 20.7792C13.351 19.9095 12.8625 18.7299 12.8625 17.5C12.8625 16.27 13.351 15.0904 14.2208 14.2208C15.0904 13.351 16.27 12.8625 17.5 12.8625C18.7299 12.8625 19.9095 13.351 20.7791 14.2208C21.6489 15.0904 22.1375 16.27 22.1375 17.5C22.1375 18.7299 21.6489 19.9095 20.7791 20.7792C19.9095 21.6489 18.7299 22.1375 17.5 22.1375ZM17.5 20.3875C18.2658 20.3875 19.0002 20.0833 19.5417 19.5417C20.0833 19.0002 20.3875 18.2658 20.3875 17.5C20.3875 16.7341 20.0833 15.9997 19.5417 15.4582C19.0002 14.9166 18.2658 14.6125 17.5 14.6125C16.7341 14.6125 15.9997 14.9166 15.4582 15.4582C14.9166 15.9997 14.6125 16.7341 14.6125 17.5C14.6125 18.2658 14.9166 19.0002 15.4582 19.5417C15.9997 20.0833 16.7341 20.3875 17.5 20.3875ZM22.0499 14.0875C22.6782 14.0875 23.1874 13.5783 23.1874 12.95C23.1874 12.3218 22.6782 11.8125 22.0499 11.8125C21.4217 11.8125 20.9124 12.3218 20.9124 12.95C20.9124 13.5783 21.4217 14.0875 22.0499 14.0875Z" fill="white"/>
</svg>
