<svg width="35" height="35" viewBox="0 0 35 35" fill="none" xmlns="http://www.w3.org/2000/svg">
<path fill-rule="evenodd" clip-rule="evenodd" d="M17.5 35C27.1652 35 35 27.1652 35 17.5C35 7.83475 27.1652 0 17.5 0C7.83475 0 0 7.83475 0 17.5C0 27.1652 7.83475 35 17.5 35Z" fill="#EF7D00"/>
<path fill-rule="evenodd" clip-rule="evenodd" d="M17.5175 11.4975C18.5412 11.4975 19.3725 12.3296 19.3725 13.3525C19.3725 14.3745 18.5412 15.2075 17.5175 15.2075C17.0257 15.2068 16.5543 15.0111 16.2066 14.6634C15.8588 14.3157 15.6632 13.8442 15.6625 13.3525C15.6625 12.3296 16.4955 11.4975 17.5175 11.4975ZM17.5175 17.8325C18.7053 17.8314 19.8441 17.3589 20.684 16.519C21.5239 15.6791 21.9963 14.5403 21.9975 13.3525C21.9961 12.1648 21.5236 11.026 20.6838 10.1862C19.8439 9.34631 18.7052 8.8739 17.5175 8.8725C16.3297 8.8739 15.191 9.34631 14.3511 10.1862C13.5113 11.026 13.0389 12.1648 13.0375 13.3525C13.0386 14.5403 13.511 15.6791 14.3509 16.519C15.1908 17.3589 16.3297 17.8314 17.5175 17.8325ZM19.327 21.4865C20.2485 21.2766 21.1281 20.9124 21.9284 20.4094C22.0742 20.3176 22.2007 20.1979 22.3004 20.0573C22.4001 19.9166 22.471 19.7577 22.5094 19.5896C22.5476 19.4214 22.5524 19.2475 22.5235 19.0774C22.4944 18.9075 22.4323 18.7449 22.3405 18.599C22.2486 18.453 22.129 18.3267 21.9883 18.2269C21.8477 18.1273 21.6887 18.0562 21.5206 18.018C21.3525 17.9798 21.1785 17.9749 21.0086 18.0039C20.8386 18.0329 20.676 18.0951 20.5301 18.1869C19.6258 18.7526 18.5806 19.0525 17.514 19.0525C16.4473 19.0525 15.4022 18.7526 14.4979 18.1869C14.3519 18.0951 14.1893 18.0329 14.0193 18.0039C13.8494 17.9749 13.6754 17.9798 13.5073 18.018C13.3392 18.0562 13.1803 18.1273 13.0396 18.2269C12.8989 18.3267 12.7793 18.453 12.6875 18.599C12.5956 18.7449 12.5335 18.9075 12.5045 19.0774C12.4756 19.2475 12.4803 19.4214 12.5186 19.5896C12.5569 19.7577 12.6278 19.9166 12.7276 20.0573C12.8272 20.1979 12.9537 20.3176 13.0996 20.4094C13.909 20.9169 14.7884 21.2791 15.701 21.4865L13.1959 23.9916C12.9497 24.2379 12.8116 24.572 12.8117 24.9202C12.8119 25.2684 12.9503 25.6023 13.1967 25.8484C13.4431 26.0945 13.777 26.2327 14.1253 26.2325C14.4735 26.2323 14.8074 26.0938 15.0535 25.8475L17.514 23.3861L19.9762 25.8475C20.0968 25.9749 20.2417 26.0769 20.4024 26.1474C20.563 26.2178 20.7362 26.2553 20.9116 26.2578C21.087 26.2602 21.2611 26.2273 21.4237 26.1613C21.5862 26.0953 21.7338 25.9973 21.8578 25.8732C21.9818 25.7492 22.0797 25.6014 22.1457 25.439C22.2117 25.2764 22.2443 25.1023 22.2419 24.9268C22.2394 24.7514 22.2018 24.5782 22.1313 24.4177C22.0608 24.257 21.9587 24.1122 21.8312 23.9916L19.327 21.4865Z" fill="white"/>
</svg>
