<svg width="35" height="35" viewBox="0 0 35 35" fill="none" xmlns="http://www.w3.org/2000/svg">
<path d="M17.5 35C27.165 35 35 27.165 35 17.5C35 7.83501 27.165 0 17.5 0C7.83501 0 0 7.83501 0 17.5C0 27.165 7.83501 35 17.5 35Z" fill="url(#paint0_linear)"/>
<path d="M7.28322 17.3482L19.0679 12.4928C20.2312 11.987 24.1762 10.3685 24.1762 10.3685C24.1762 10.3685 25.9971 9.66041 25.8454 11.38C25.7947 12.0882 25.3901 14.5664 24.9855 17.2471L23.7211 25.1879C23.7211 25.1879 23.6199 26.3511 22.7601 26.5535C21.9003 26.7558 20.4841 25.8454 20.2312 25.6431C20.0289 25.4913 16.4378 23.2153 15.1228 22.1026C14.7688 21.7991 14.3642 21.1922 15.1734 20.4841C16.9942 18.815 19.1691 16.7413 20.4841 15.4263C21.091 14.8193 21.698 13.4031 19.1691 15.1229L12.0376 19.9277C12.0376 19.9277 11.2284 20.4335 9.71093 19.9783C8.19362 19.5231 6.42339 18.9162 6.42339 18.9162C6.42339 18.9162 5.20952 18.1575 7.28322 17.3482Z" fill="white"/>
<defs>
<linearGradient id="paint0_linear" x1="23.3345" y1="5.8345" x2="14.5845" y2="26.25" gradientUnits="userSpaceOnUse">
<stop stop-color="#37AEE2"/>
<stop offset="1" stop-color="#1E96C8"/>
</linearGradient>
</defs>
</svg>
