<svg width="35" height="35" viewBox="0 0 35 35" fill="none" xmlns="http://www.w3.org/2000/svg">
<path fill-rule="evenodd" clip-rule="evenodd" d="M25.0049 14.4804C25.0119 14.6344 25.0163 14.7884 25.0163 14.945C25.0163 19.6884 21.4051 25.1597 14.8006 25.1597C12.7724 25.1597 10.8859 24.5656 9.29688 23.5471C9.57775 23.5804 9.86388 23.5961 10.1535 23.5961C11.7702 23.599 13.3408 23.0578 14.6125 22.0596C13.8633 22.0459 13.1372 21.7983 12.5356 21.3514C11.9341 20.9046 11.4874 20.2809 11.2578 19.5676C11.7963 19.6697 12.351 19.6481 12.88 19.5046C12.0676 19.3405 11.337 18.9003 10.8122 18.2589C10.2873 17.6174 10.0006 16.8142 10.0004 15.9854V15.939C10.4986 16.2165 11.0561 16.3707 11.6261 16.3888C10.8651 15.8815 10.3264 15.103 10.1198 14.212C9.91331 13.3211 10.0546 12.3849 10.5149 11.5946C11.4164 12.7039 12.5412 13.6113 13.8162 14.2577C15.0912 14.9041 16.4879 15.2751 17.9156 15.3466C17.7352 14.5766 17.8139 13.7687 18.1397 13.048C18.4655 12.3273 19.0201 11.7344 19.7173 11.3613C20.4145 10.9881 21.2154 10.8554 21.9958 10.984C22.7761 11.1126 23.4921 11.4952 24.0327 12.0724C24.837 11.9141 25.6082 11.6193 26.313 11.2009C26.0449 12.0321 25.4844 12.7378 24.7354 13.1871C25.4616 13.0996 26.1529 12.9071 26.7969 12.6219C26.3146 13.3428 25.7078 13.9721 25.0049 14.4804ZM17.5 0C7.83475 0 0 7.83475 0 17.5C0 27.1644 7.83475 35 17.5 35C27.1652 35 35 27.1644 35 17.5C35 7.83475 27.1652 0 17.5 0Z" fill="#1DA1F2"/>
</svg>
