<svg width="35" height="35" viewBox="0 0 35 35" fill="none" xmlns="http://www.w3.org/2000/svg">
<path d="M17.5 35C27.165 35 35 27.165 35 17.5C35 7.83501 27.165 0 17.5 0C7.83501 0 0 7.83501 0 17.5C0 27.165 7.83501 35 17.5 35Z" fill="#4F76A1"/>
<path fill-rule="evenodd" clip-rule="evenodd" d="M16.7755 23.2908H17.8456C17.8456 23.2908 18.1685 23.2558 18.333 23.0773C18.4853 22.9136 18.48 22.6074 18.48 22.6074C18.48 22.6074 18.4599 21.1724 19.1258 20.9606C19.782 20.7524 20.6255 22.3484 21.5189 22.9618C22.1944 23.4255 22.7089 23.324 22.7089 23.324L25.0976 23.2908C25.0976 23.2908 26.348 23.2138 25.7548 22.2303C25.7066 22.1506 25.41 21.504 23.9785 20.174C22.4796 18.7836 22.6809 19.0094 24.486 16.604C25.585 15.1384 26.0243 14.2441 25.8869 13.8609C25.7556 13.496 24.9471 13.5923 24.9471 13.5923L22.2574 13.6098C22.2574 13.6098 22.057 13.5818 21.91 13.671C21.7648 13.7568 21.672 13.9598 21.672 13.9598C21.672 13.9598 21.2459 15.0929 20.678 16.0571C19.4801 18.0915 19.0015 18.1991 18.8055 18.0723C18.3505 17.7783 18.4643 16.8901 18.4643 16.2584C18.4643 14.287 18.7626 13.4645 17.8815 13.2519C17.5893 13.1819 17.374 13.1346 16.625 13.1276C15.6651 13.1171 14.8531 13.1303 14.3929 13.3551C14.0866 13.5056 13.8504 13.8399 13.9948 13.8583C14.1724 13.8828 14.5749 13.9676 14.7884 14.2581C15.064 14.6335 15.0544 15.4753 15.0544 15.4753C15.0544 15.4753 15.2128 17.7966 14.6843 18.0845C14.322 18.2823 13.8241 17.8789 12.7566 16.0326C12.2089 15.0876 11.7959 14.042 11.7959 14.042C11.7959 14.042 11.7171 13.8469 11.5745 13.7428C11.4492 13.6599 11.3084 13.6034 11.1606 13.5765L8.60391 13.5923C8.60391 13.5923 8.22066 13.6028 8.07891 13.7699C7.95379 13.9186 8.06929 14.2249 8.06929 14.2249C8.06929 14.2249 10.0713 18.9088 12.3375 21.2686C14.4156 23.4325 16.7755 23.2899 16.7755 23.2899" fill="white"/>
</svg>
