<svg width="35" height="35" viewBox="0 0 35 35" fill="none" xmlns="http://www.w3.org/2000/svg">
<path fill-rule="evenodd" clip-rule="evenodd" d="M26.25 18.1615C26.25 19.5773 26.075 20.9939 26.075 20.9939C26.075 20.9939 25.9044 22.1996 25.3794 22.7308C24.7144 23.4272 23.968 23.4307 23.6259 23.471C21.1768 23.6486 17.5 23.6539 17.5 23.6539C17.5 23.6539 12.95 23.6119 11.55 23.4789C11.1606 23.4054 10.2856 23.4272 9.62062 22.7308C9.09562 22.1988 8.925 20.9939 8.925 20.9939C8.925 20.9939 8.75 19.5773 8.75 18.1615V16.8333C8.75 15.4166 8.925 14.0018 8.925 14.0018C8.925 14.0018 9.09562 12.7951 9.62062 12.264C10.2856 11.5666 11.032 11.564 11.3741 11.5229C13.8224 11.3461 17.4965 11.3461 17.4965 11.3461H17.5035C17.5035 11.3461 21.1768 11.3461 23.6259 11.5229C23.968 11.5631 24.7144 11.5666 25.3794 12.2631C25.9044 12.7951 26.075 14.0018 26.075 14.0018C26.075 14.0018 26.25 15.4166 26.25 16.8333V18.1615ZM17.5 0C7.83475 0 0 7.83475 0 17.5C0 27.1652 7.83475 35 17.5 35C27.1652 35 35 27.1652 35 17.5C35 7.83475 27.1652 0 17.5 0Z" fill="#E72B22"/>
<path fill-rule="evenodd" clip-rule="evenodd" d="M15.7509 19.8564L20.65 17.318L15.75 14.7612L15.7509 19.8564Z" fill="#E72B22"/>
</svg>
