<svg width="512" height="512" viewBox="0 0 512 512" fill="none" xmlns="http://www.w3.org/2000/svg">
<path d="M458.11 90.77C458.11 70.4 441.6 53.88 421.22 53.88H318.54V0H193.46V53.89H90.77C70.4 53.89 53.88 70.4 53.88 90.78V193.47H0V318.55H53.89V421.24C53.89 441.61 70.4 458.13 90.78 458.13H193.47V512H318.55V458.11H421.24C441.61 458.11 458.13 441.6 458.13 421.22V318.54H512V193.46H458.11V90.77ZM439.25 358.46C439.25 379.94 420.47 397.32 397.26 397.32H114.74C91.53 397.32 72.75 379.94 72.75 358.46V250.63L244.24 303.49C247.9 304.76 251.88 305.47 256 305.47C260.12 305.47 264.09 304.76 266.84 303.77L439.25 250.63V358.46ZM439.25 228.3L259.66 283.7C258.44 284.12 257.22 284.27 255.99 284.27C254.76 284.27 253.55 284.13 252.32 283.7L72.73 228.3V195.94C72.73 174.46 91.51 157.08 114.72 157.08H194.89V142.95C194.89 127.36 208.59 114.69 225.43 114.69H286.51C303.35 114.69 317.05 127.37 317.05 142.95V157.08H397.22C420.43 157.08 439.21 174.46 439.21 195.94V228.3H439.25Z" fill="white"/>
<path d="M286.54 142.94H225.46V157.07H286.54V142.94Z" fill="white"/>
<path d="M256 305.46C251.88 305.46 247.91 304.75 244.24 303.48L72.75 250.62V358.45C72.75 379.93 91.53 397.31 114.74 397.31H397.25C420.46 397.31 439.24 379.93 439.24 358.45V250.63L266.83 303.77C264.09 304.76 260.12 305.46 256 305.46Z" fill="#61B562"/>
<path d="M397.26 157.07H317.09V142.94C317.09 127.35 303.39 114.68 286.55 114.68H225.47C208.63 114.68 194.93 127.36 194.93 142.94V157.07H114.76C91.55 157.07 72.77 174.45 72.77 195.93V228.29L252.36 283.69C253.58 284.11 254.8 284.26 256.03 284.26C257.26 284.26 258.47 284.12 259.7 283.69L439.29 228.29V195.93C439.25 174.46 420.47 157.07 397.26 157.07ZM286.54 157.07H225.46V142.94H286.54V157.07Z" fill="#61B562"/>
<path d="M441.23 0H437.64C478.71 0 512 33.29 512 74.36V70.77C512 31.69 480.31 0 441.23 0Z" fill="url(#paint0_linear)"/>
<path d="M437.64 0H318.54V53.89H421.23C441.6 53.89 458.12 70.4 458.12 90.78V193.47H512V74.37C512 33.29 478.71 0 437.64 0Z" fill="white"/>
<path d="M437.64 0H318.54V53.89H421.23C441.6 53.89 458.12 70.4 458.12 90.78V193.47H512V74.37C512 33.29 478.71 0 437.64 0Z" fill="url(#paint1_linear)"/>
<path d="M74.36 0H70.77C31.69 0 0 31.69 0 70.77V74.36C0 33.29 33.29 0 74.36 0Z" fill="url(#paint2_linear)"/>
<path d="M53.89 90.77C53.89 70.4 70.4 53.88 90.78 53.88H193.47V0H74.37C33.29 0 0 33.29 0 74.36V193.46H53.89V90.77Z" fill="white"/>
<path d="M53.89 90.77C53.89 70.4 70.4 53.88 90.78 53.88H193.47V0H74.37C33.29 0 0 33.29 0 74.36V193.46H53.89V90.77Z" fill="url(#paint3_linear)"/>
<path d="M437.64 512H441.23C480.32 512 512 480.31 512 441.23V437.64C512 478.71 478.71 512 437.64 512Z" fill="url(#paint4_linear)"/>
<path d="M458.11 421.23C458.11 441.6 441.6 458.12 421.22 458.12H318.54V512H437.64C478.71 512 512 478.71 512 437.64V318.54H458.11V421.23Z" fill="white"/>
<path d="M458.11 421.23C458.11 441.6 441.6 458.12 421.22 458.12H318.54V512H437.64C478.71 512 512 478.71 512 437.64V318.54H458.11V421.23Z" fill="url(#paint5_linear)"/>
<path d="M0 437.64V441.23C0 480.31 31.69 512 70.77 512H74.36C33.29 512 0 478.71 0 437.64Z" fill="url(#paint6_linear)"/>
<path d="M90.77 458.11C70.4 458.11 53.88 441.6 53.88 421.22V318.54H0V437.64C0 478.71 33.29 512 74.36 512H193.46V458.11H90.77Z" fill="white"/>
<path d="M90.77 458.11C70.4 458.11 53.88 441.6 53.88 421.22V318.54H0V437.64C0 478.71 33.29 512 74.36 512H193.46V458.11H90.77Z" fill="url(#paint7_linear)"/>
<defs>
<linearGradient id="paint0_linear" x1="584.583" y1="143.754" x2="437.179" y2="-20.0121" gradientUnits="userSpaceOnUse">
<stop stop-color="white"/>
<stop offset="0.699" stop-color="#AAAAAA"/>
</linearGradient>
<linearGradient id="paint1_linear" x1="537.738" y1="185.918" x2="390.335" y2="22.152" gradientUnits="userSpaceOnUse">
<stop stop-color="white"/>
<stop offset="0.699" stop-color="#AAAAAA"/>
</linearGradient>
<linearGradient id="paint2_linear" x1="126.651" y1="136.583" x2="45.3653" y2="46.2738" gradientUnits="userSpaceOnUse">
<stop stop-color="white"/>
<stop offset="0.699" stop-color="#AAAAAA"/>
</linearGradient>
<linearGradient id="paint3_linear" x1="129.938" y1="133.624" x2="48.6522" y2="43.3153" gradientUnits="userSpaceOnUse">
<stop stop-color="white"/>
<stop offset="0.699" stop-color="#AAAAAA"/>
</linearGradient>
<linearGradient id="paint4_linear" x1="494.713" y1="496.921" x2="413.427" y2="406.612" gradientUnits="userSpaceOnUse">
<stop stop-color="white"/>
<stop offset="0.699" stop-color="#AAAAAA"/>
</linearGradient>
<linearGradient id="paint5_linear" x1="491.426" y1="499.88" x2="410.14" y2="409.571" gradientUnits="userSpaceOnUse">
<stop stop-color="white"/>
<stop offset="0.699" stop-color="#AAAAAA"/>
</linearGradient>
<linearGradient id="paint6_linear" x1="125.738" y1="588.581" x2="-21.666" y2="424.814" gradientUnits="userSpaceOnUse">
<stop stop-color="white"/>
<stop offset="0.699" stop-color="#AAAAAA"/>
</linearGradient>
<linearGradient id="paint7_linear" x1="172.582" y1="546.417" x2="25.1785" y2="382.65" gradientUnits="userSpaceOnUse">
<stop stop-color="white"/>
<stop offset="0.699" stop-color="#AAAAAA"/>
</linearGradient>
</defs>
</svg>
