<svg width="18" height="19" viewBox="0 0 18 19" fill="none" xmlns="http://www.w3.org/2000/svg">
<g clip-path="url(#clip0)">
<path d="M6.09263 4.55491C6.6732 5.17564 6.6732 5.95057 6.09263 6.56735C5.65065 7.03784 5.20866 7.50834 4.75919 7.97092C4.63558 8.09744 4.60936 8.20419 4.69177 8.35839C4.84908 8.66282 4.97643 8.98703 5.14873 9.2796C5.96153 10.6436 7.00656 11.7863 8.18269 12.7984C8.76701 13.3005 9.39253 13.7473 10.0967 14.0597C10.239 14.1229 10.3327 14.111 10.4488 13.9885C10.8795 13.518 11.3215 13.0594 11.7635 12.5968C12.3778 11.9523 13.097 11.9523 13.715 12.6007C14.0671 12.9684 14.4117 13.3361 14.7638 13.7038C15.1233 14.0834 15.4867 14.459 15.8425 14.8425C16.4156 15.4632 16.4156 16.2382 15.8388 16.8549C15.3968 17.3294 14.9436 17.7841 14.5091 18.2664C14.1083 18.7132 13.6176 18.9385 13.0445 18.986C12.1119 19.0611 11.2316 18.8199 10.3739 18.4799C8.59846 17.7841 7.02155 16.7245 5.57573 15.4395C3.62051 13.7038 2.07357 11.6321 0.957372 9.20844C0.455458 8.11721 0.0696583 6.98644 0.00598145 5.75684C-0.0389652 4.91074 0.163298 4.17535 0.788818 3.58624C1.21582 3.18297 1.60537 2.72829 2.01364 2.30128C2.62043 1.66869 3.35458 1.66474 3.95388 2.29338C4.66929 3.04459 5.38096 3.79975 6.09263 4.55491Z" fill="white"/>
<path d="M9.07789 5.31008L9.31386 3.85116C10.5836 4.08048 11.7335 4.71307 12.6475 5.67383C13.6101 6.68993 14.2169 7.97489 14.4042 9.39032L13.0145 9.59592C12.8685 8.50074 12.4003 7.5044 11.6549 6.71761C10.9507 5.97431 10.0592 5.488 9.07789 5.31008Z" fill="white"/>
<path d="M15.0859 3.02879C16.6815 4.71308 17.6891 6.84413 18 9.1966L16.6104 9.40219C16.3407 7.36998 15.468 5.52755 14.0933 4.07258C12.7861 2.69273 11.1343 1.78733 9.31763 1.45917L9.5536 0.000244141C11.6586 0.383755 13.5689 1.43149 15.0859 3.02879Z" fill="white"/>
</g>
<defs>
<clipPath id="clip0">
<rect width="19" height="18" fill="white" transform="matrix(0 -1 -1 0 18 19)"/>
</clipPath>
</defs>
</svg>
